<?xml version="1.0" standalone="no"?>
<!DOCTYPE svg PUBLIC "-//W3C//DTD SVG 20010904//EN"
 "http://www.w3.org/TR/2001/REC-SVG-20010904/DTD/svg10.dtd">
<svg version="1.0" xmlns="http://www.w3.org/2000/svg"
 width="1024.000000pt" height="1024.000000pt" viewBox="0 0 1024.000000 1024.000000"
 preserveAspectRatio="xMidYMid meet">
<metadata>
Created by potrace 1.14, written by Peter Selinger 2001-2017
</metadata>
<g transform="translate(0.000000,1024.000000) scale(0.100000,-0.100000)"
fill="#000000" stroke="none">
<path d="M1314 10231 c4 -6 -4 -10 -21 -10 -46 1 -116 -11 -146 -26 -15 -7
-25 -9 -22 -4 4 5 1 9 -4 9 -6 0 -11 -5 -11 -11 0 -8 -6 -7 -17 2 -11 10 -14
10 -9 2 5 -9 1 -13 -13 -13 -30 0 -52 -11 -44 -23 4 -6 1 -7 -8 -1 -20 12 -40
14 -33 3 3 -5 -2 -9 -10 -9 -9 0 -16 -6 -16 -12 0 -9 -4 -8 -10 2 -8 12 -10
12 -10 1 0 -11 -3 -11 -15 -1 -12 10 -15 9 -15 -4 0 -9 -6 -16 -12 -15 -7 1
-29 -5 -48 -14 -19 -8 -39 -13 -44 -10 -5 4 -6 1 -3 -4 6 -10 -12 -23 -38 -28
-29 -6 -55 -18 -55 -26 0 -5 -9 -9 -19 -9 -11 0 -21 -4 -23 -9 -2 -5 -10 -11
-18 -13 -8 -2 -26 -14 -39 -28 -13 -14 -20 -19 -17 -12 11 19 -1 14 -27 -12
-14 -14 -28 -22 -31 -19 -3 4 -6 1 -6 -5 0 -7 -6 -11 -12 -10 -7 2 -12 -3 -10
-11 2 -9 -3 -11 -13 -7 -9 3 -14 2 -10 -3 3 -5 -9 -20 -27 -32 -18 -13 -34
-27 -36 -31 -2 -4 -10 -8 -18 -8 -9 0 -13 -4 -9 -9 3 -5 -4 -12 -15 -16 -11
-4 -18 -11 -15 -16 4 -5 -4 -13 -17 -18 -13 -6 -19 -10 -15 -10 4 -1 -3 -12
-15 -25 -13 -13 -26 -21 -31 -19 -4 2 -6 1 -5 -4 4 -15 -23 -54 -34 -47 -7 4
-8 3 -4 -4 4 -7 2 -12 -4 -12 -6 0 -9 -4 -6 -9 3 -5 -1 -11 -9 -15 -8 -3 -15
-12 -15 -21 0 -8 -4 -15 -10 -15 -5 0 -10 -9 -10 -20 0 -11 -7 -23 -15 -26 -8
-4 -15 -12 -15 -20 0 -8 -4 -14 -8 -14 -8 0 -36 -60 -33 -72 0 -5 -4 -8 -10
-8 -5 0 -8 -4 -4 -9 3 -5 -2 -16 -10 -24 -17 -17 -20 -31 -5 -22 6 3 7 -1 4
-9 -3 -9 -10 -16 -14 -16 -11 0 -32 -89 -24 -102 4 -7 3 -8 -4 -4 -12 7 -15
-1 -15 -36 0 -10 -3 -18 -8 -18 -5 0 -6 -6 -3 -14 3 -8 1 -17 -4 -20 -5 -3 -8
-19 -6 -36 2 -17 0 -29 -4 -26 -12 7 -10 -48 2 -56 8 -6 8 -8 0 -8 -17 0 -18
-7691 -1 -7702 9 -6 9 -8 0 -8 -7 0 -13 -5 -13 -11 0 -5 6 -7 13 -3 9 6 9 4
-1 -7 -6 -7 -12 -18 -12 -23 0 -6 5 -4 10 4 7 11 9 5 9 -20 0 -44 5 -81 21
-145 6 -27 13 -57 15 -65 10 -48 18 -70 25 -70 4 0 6 -11 5 -25 -2 -14 1 -25
6 -25 5 0 9 -9 9 -20 0 -11 5 -20 12 -20 6 0 9 -3 5 -6 -3 -4 0 -19 8 -34 8
-15 11 -30 8 -34 -4 -3 -1 -6 5 -6 7 0 12 -7 12 -15 0 -8 5 -15 11 -15 5 0 8
-4 4 -9 -3 -5 -1 -12 5 -16 6 -4 8 -11 5 -16 -4 -5 -1 -9 4 -9 6 0 11 -7 11
-15 0 -9 6 -18 14 -21 9 -3 12 -12 9 -21 -4 -10 -2 -14 4 -10 5 3 20 -14 32
-39 13 -26 27 -41 33 -38 6 4 8 2 4 -4 -3 -6 5 -22 19 -36 14 -14 23 -26 20
-26 -7 0 146 -150 195 -192 18 -15 37 -25 43 -21 5 3 7 2 4 -4 -4 -6 9 -19 28
-29 19 -10 35 -21 35 -25 0 -4 14 -12 30 -19 17 -7 30 -17 30 -22 0 -5 4 -7 9
-3 5 3 17 -2 25 -11 9 -8 16 -13 16 -9 0 4 7 -1 16 -9 8 -9 20 -14 25 -11 5 4
9 1 9 -5 0 -6 4 -8 10 -5 5 3 10 1 10 -5 0 -6 5 -8 10 -5 6 3 10 1 10 -6 0 -7
3 -9 7 -6 3 4 12 2 19 -3 6 -6 18 -9 25 -8 8 2 13 -2 12 -8 -1 -6 3 -11 10
-12 19 -1 48 -9 100 -27 27 -9 57 -17 68 -18 10 -1 19 -5 19 -9 0 -4 6 -5 14
-2 8 3 29 -2 46 -11 18 -9 29 -12 26 -6 -4 6 -2 11 3 11 6 0 11 -4 11 -8 0 -8
33 -12 95 -12 23 0 27 -2 15 -10 -10 -6 1298 -10 3763 -10 2335 0 3776 4 3772
9 -8 15 9 21 25 9 12 -8 11 -8 -5 -3 -14 4 -17 3 -9 -5 11 -11 44 -4 44 9 0 4
19 6 42 4 29 -1 46 3 55 15 8 9 11 11 7 3 -5 -10 -3 -12 7 -5 8 4 25 7 38 5
13 -1 21 1 17 7 -3 5 7 9 22 10 15 0 38 5 52 10 14 5 28 10 33 11 4 0 21 8 37
16 16 8 32 15 35 15 16 -1 55 14 55 21 0 5 3 8 8 7 14 -4 52 13 52 23 0 6 5 7
10 4 6 -3 17 1 26 9 9 9 20 14 25 11 5 -4 9 -1 9 5 0 6 4 9 9 6 5 -3 14 1 21
9 7 8 19 15 26 15 8 0 14 4 14 8 0 5 16 16 35 25 19 9 35 22 35 27 0 6 5 8 10
5 6 -3 10 -1 10 6 0 7 3 10 6 6 5 -5 41 21 133 98 51 43 175 172 192 200 11
17 19 26 19 20 0 -5 15 13 34 40 18 28 32 53 29 58 -2 4 3 7 12 7 10 0 15 6
12 13 -3 7 4 19 14 26 11 6 17 16 14 21 -3 6 -1 10 5 10 6 0 8 5 5 10 -3 6 1
13 10 16 9 4 14 12 11 19 -3 8 2 16 10 19 9 3 12 11 8 17 -3 6 0 15 7 20 8 4
14 12 15 16 1 12 27 76 55 136 6 13 9 27 8 33 -3 19 1 35 9 30 8 -4 9 4 14 74
1 16 5 27 10 24 4 -3 7 5 7 18 -1 13 3 34 7 48 13 38 16 7780 4 7796 -7 8 -8
14 -1 18 10 7 7 38 -6 59 -4 6 -6 20 -4 31 2 12 -1 16 -9 11 -9 -6 -9 -2 -1
14 10 17 9 22 -4 27 -9 4 -14 13 -11 20 3 7 1 16 -5 19 -5 4 -7 11 -4 16 4 5
1 9 -5 9 -6 0 -8 5 -5 10 4 6 1 17 -5 25 -7 8 -9 15 -4 15 5 0 4 4 -3 8 -6 4
-14 21 -16 37 -3 17 -10 29 -17 27 -8 -2 -10 3 -7 13 4 8 2 15 -3 15 -5 0 -6
7 -3 17 4 10 2 14 -5 9 -6 -3 -13 -2 -17 4 -3 5 -1 10 5 10 6 0 0 12 -14 27
-14 15 -23 30 -20 35 3 4 0 8 -5 8 -6 0 -11 5 -11 10 0 6 -8 19 -17 29 -31 34
-44 51 -39 51 3 0 -10 16 -30 35 -19 19 -32 35 -28 35 4 0 -11 17 -34 38 -23
22 -42 45 -42 53 0 12 -2 12 -9 0 -7 -11 -10 -9 -16 8 -3 11 -13 21 -21 21 -8
0 -13 4 -10 8 3 5 -6 15 -19 22 -13 7 -21 18 -18 24 3 6 2 8 -2 3 -5 -4 -17 0
-27 10 -10 9 -18 12 -18 7 0 -5 -7 2 -16 14 -8 12 -21 22 -28 22 -7 0 -21 9
-31 20 -10 11 -22 17 -26 14 -5 -3 -9 2 -9 10 0 8 -6 13 -13 10 -7 -2 -22 4
-34 15 -11 11 -24 17 -27 14 -3 -4 -6 0 -6 7 0 7 -3 11 -6 7 -4 -3 -13 1 -21
9 -8 8 -19 12 -24 9 -5 -4 -9 -1 -9 5 0 6 -4 8 -10 5 -5 -3 -10 1 -10 11 0 13
-3 14 -15 4 -10 -9 -15 -9 -15 -1 0 6 -7 11 -15 11 -8 0 -15 4 -15 9 0 6 -9 8
-19 6 -11 -2 -25 3 -31 10 -6 8 -18 11 -26 8 -7 -3 -17 2 -20 12 -4 9 -13 14
-22 10 -8 -3 -21 0 -28 6 -8 6 -14 8 -14 4 0 -4 -7 -2 -15 5 -8 6 -19 9 -24 6
-5 -4 -13 -1 -16 5 -4 5 -13 8 -21 5 -8 -3 -14 -1 -14 5 0 6 -7 9 -15 5 -8 -3
-15 -1 -15 3 0 5 -7 12 -16 15 -15 6 -15 4 -3 -10 13 -16 12 -16 -11 -4 -14 8
-31 13 -39 11 -7 -1 -11 2 -8 7 3 4 -8 6 -25 4 -23 -3 -29 -1 -23 8 6 9 3 9
-14 1 -13 -7 -21 -8 -21 -2 0 6 -7 8 -16 4 -9 -3 -20 0 -25 8 -7 12 -9 12 -9
-1 0 -13 -1 -13 -10 0 -7 11 -10 11 -10 2 0 -9 -5 -10 -19 -2 -27 14 -7511 14
-7511 0 0 -7 -7 -7 -21 1 -14 7 -19 7 -15 0z m-1289 -1160 c3 -5 2 -12 -3 -15
-5 -3 -9 1 -9 9 0 17 3 19 12 6z"/>
</g>
</svg>
